<svg width="280" height="40" viewBox="0 0 280 40" fill="none" xmlns="http://www.w3.org/2000/svg">
<path d="M242.54 31.6807V10.7984H246.83V13.6717H247.073C247.397 12.7544 247.855 11.972 248.449 11.3245C249.069 10.65 249.933 10.3127 251.039 10.3127C252.091 10.3127 252.928 10.623 253.548 11.2435C254.169 11.8371 254.573 12.687 254.762 13.7931H254.965C255.315 12.8488 255.828 12.0394 256.502 11.365C257.204 10.6635 258.189 10.3127 259.457 10.3127C260.995 10.3127 262.101 10.8658 262.775 11.972C263.45 13.0782 263.787 14.7104 263.787 16.8688V31.6807H259.538V17.4758C259.538 16.2618 259.362 15.4119 259.011 14.9263C258.688 14.4406 258.189 14.1978 257.514 14.1978C256.894 14.1978 256.367 14.4002 255.936 14.8049C255.531 15.2096 255.329 15.8301 255.329 16.6665V31.6807H251.039V17.4758C251.039 16.2618 250.877 15.4119 250.553 14.9263C250.23 14.4406 249.73 14.1978 249.056 14.1978C248.408 14.1978 247.869 14.4002 247.437 14.8049C247.033 15.2096 246.83 15.8301 246.83 16.6665V31.6807H242.54Z" fill="#FFE684"/>
<path d="M232.843 27.9979H232.641C232.182 29.131 231.467 30.1158 230.496 30.9522C229.552 31.7616 228.23 32.1662 226.53 32.1662C224.48 32.1662 222.807 31.4918 221.512 30.1428C220.244 28.7668 219.61 26.8108 219.61 24.2747V10.7983H224.79V23.5462C224.79 26.568 226.098 28.0788 228.715 28.0788C229.228 28.0788 229.727 28.0114 230.213 27.8765C230.725 27.7416 231.171 27.5392 231.548 27.2694C231.953 26.9727 232.263 26.6219 232.479 26.2172C232.722 25.8125 232.843 25.3269 232.843 24.7603V10.7983H238.023V31.6806H232.843V27.9979Z" fill="#FFE684"/>
<path d="M194.009 31.6807V10.7984H198.298V13.6717H198.541C198.865 12.7544 199.324 11.972 199.917 11.3245C200.538 10.65 201.401 10.3127 202.507 10.3127C203.559 10.3127 204.396 10.623 205.016 11.2435C205.637 11.8371 206.041 12.687 206.23 13.7931H206.433C206.783 12.8488 207.296 12.0394 207.971 11.365C208.672 10.6635 209.657 10.3127 210.925 10.3127C212.463 10.3127 213.569 10.8658 214.243 11.972C214.918 13.0782 215.255 14.7104 215.255 16.8688V31.6807H211.006V17.4758C211.006 16.2618 210.83 15.4119 210.48 14.9263C210.156 14.4406 209.657 14.1978 208.982 14.1978C208.362 14.1978 207.836 14.4002 207.404 14.8049C206.999 15.2096 206.797 15.8301 206.797 16.6665V31.6807H202.507V17.4758C202.507 16.2618 202.345 15.4119 202.022 14.9263C201.698 14.4406 201.199 14.1978 200.524 14.1978C199.877 14.1978 199.337 14.4002 198.905 14.8049C198.501 15.2096 198.298 15.8301 198.298 16.6665V31.6807H194.009Z" fill="#FFE684"/>
<path d="M181.681 7.56068C180.467 7.56068 179.604 7.30437 179.091 6.79176C178.605 6.27914 178.363 5.65861 178.363 4.93016V3.95889C178.363 3.23044 178.605 2.60991 179.091 2.09729C179.604 1.58468 180.467 1.32837 181.681 1.32837C182.895 1.32837 183.745 1.58468 184.231 2.09729C184.743 2.60991 185 3.23044 185 3.95889V4.93016C185 5.65861 184.743 6.27914 184.231 6.79176C183.745 7.30437 182.895 7.56068 181.681 7.56068ZM172.211 27.5931H179.091V14.8857H172.211V10.7982H184.271V27.5931H190.665V31.6805H172.211V27.5931Z" fill="#FFE684"/>
<path d="M157.537 31.6803C155.54 31.6803 154.07 31.1542 153.126 30.102C152.181 29.0498 151.709 27.6873 151.709 26.0146V14.8855H145.639V10.7981H149.767C150.603 10.7981 151.196 10.6362 151.547 10.3124C151.898 9.9617 152.073 9.35466 152.073 8.49131V3.43262H156.889V10.7981H165.388V14.8855H156.889V27.5929H165.388V31.6803H157.537Z" fill="#FFE684"/>
<path d="M122.506 10.7984H127.686V14.4811H127.969C128.536 13.2131 129.305 12.2013 130.276 11.4459C131.274 10.6905 132.583 10.3127 134.202 10.3127C135.389 10.3127 136.468 10.5421 137.439 11.0007C138.437 11.4324 139.287 12.1069 139.989 13.0242C140.69 13.9145 141.23 15.0477 141.607 16.4236C141.985 17.7996 142.174 19.4049 142.174 21.2395C142.174 23.0741 141.985 24.6794 141.607 26.0554C141.23 27.4314 140.69 28.578 139.989 29.4953C139.287 30.3856 138.437 31.0601 137.439 31.5188C136.468 31.9504 135.389 32.1663 134.202 32.1663C132.583 32.1663 131.274 31.7886 130.276 31.0331C129.305 30.2777 128.536 29.266 127.969 27.9979H127.686V39.7746H122.506V10.7984ZM132.016 28.0384C133.527 28.0384 134.687 27.5797 135.497 26.6624C136.333 25.7451 136.751 24.4906 136.751 22.8988V19.5803C136.751 17.9885 136.333 16.7339 135.497 15.8166C134.687 14.8993 133.527 14.4406 132.016 14.4406C130.829 14.4406 129.804 14.7374 128.941 15.331C128.104 15.8975 127.686 16.7744 127.686 17.9615V24.5175C127.686 25.7047 128.104 26.595 128.941 27.1885C129.804 27.7551 130.829 28.0384 132.016 28.0384Z" fill="#FFE684"/>
<path d="M107.588 32.1663C105.997 32.1663 104.567 31.91 103.299 31.3974C102.058 30.8848 100.992 30.1563 100.102 29.212C99.2382 28.2677 98.5637 27.1211 98.0781 25.7721C97.6195 24.4231 97.3901 22.9123 97.3901 21.2395C97.3901 19.5668 97.6195 18.0559 98.0781 16.7069C98.5637 15.3579 99.2382 14.2113 100.102 13.267C100.992 12.3227 102.058 11.5943 103.299 11.0817C104.567 10.5691 105.997 10.3127 107.588 10.3127C109.153 10.3127 110.57 10.5691 111.838 11.0817C113.106 11.5943 114.171 12.3227 115.035 13.267C115.925 14.2113 116.6 15.3579 117.058 16.7069C117.544 18.0559 117.787 19.5668 117.787 21.2395C117.787 22.9123 117.544 24.4231 117.058 25.7721C116.6 27.1211 115.925 28.2677 115.035 29.212C114.171 30.1563 113.106 30.8848 111.838 31.3974C110.57 31.91 109.153 32.1663 107.588 32.1663ZM107.588 28.2003C109.072 28.2003 110.246 27.7551 111.109 26.8648C111.973 25.9475 112.404 24.612 112.404 22.8583V19.6207C112.404 17.8671 111.973 16.5451 111.109 15.6547C110.246 14.7374 109.072 14.2788 107.588 14.2788C106.105 14.2788 104.931 14.7374 104.068 15.6547C103.204 16.5451 102.773 17.8671 102.773 19.6207V22.8583C102.773 24.612 103.204 25.9475 104.068 26.8648C104.931 27.7551 106.105 28.2003 107.588 28.2003Z" fill="#FFE684"/>
<path d="M77.0498 21.8868V16.8281H89.5954V21.8868H77.0498Z" fill="#FFE684"/>
<path d="M49.7082 1.73315H54.8883V14.4811H55.1716C55.7381 13.213 56.5071 12.2013 57.4783 11.4458C58.4766 10.6904 59.7851 10.3127 61.4039 10.3127C62.591 10.3127 63.6702 10.542 64.6414 11.0007C65.6397 11.4323 66.4895 12.1068 67.191 13.0242C67.8925 13.9145 68.4321 15.0476 68.8098 16.4236C69.1875 17.7996 69.3764 19.4048 69.3764 21.2395C69.3764 23.0741 69.1875 24.6794 68.8098 26.0553C68.4321 27.4313 67.8925 28.5779 67.191 29.4952C66.4895 30.3856 65.6397 31.0601 64.6414 31.5187C63.6702 31.9504 62.591 32.1662 61.4039 32.1662C59.7851 32.1662 58.4766 31.7885 57.4783 31.0331C56.5071 30.2777 55.7381 29.2659 55.1716 27.9979H54.8883V31.6806H49.7082V1.73315ZM59.2185 28.0383C60.7294 28.0383 61.8895 27.5797 62.6989 26.6624C63.5353 25.7451 63.9535 24.4905 63.9535 22.8987V19.5802C63.9535 17.9884 63.5353 16.7339 62.6989 15.8165C61.8895 14.8992 60.7294 14.4406 59.2185 14.4406C58.0314 14.4406 57.0062 14.7374 56.1428 15.3309C55.3065 15.8975 54.8883 16.7743 54.8883 17.9614V24.5175C54.8883 25.7046 55.3065 26.5949 56.1428 27.1885C57.0062 27.7551 58.0314 28.0383 59.2185 28.0383Z" fill="#FFE684"/>
<path d="M38.7163 27.9979H38.5139C38.0553 29.131 37.3403 30.1158 36.369 30.9522C35.4247 31.7616 34.1027 32.1662 32.403 32.1662C30.3526 32.1662 28.6798 31.4918 27.3848 30.1428C26.1168 28.7668 25.4827 26.8108 25.4827 24.2747V10.7983H30.6628V23.5462C30.6628 26.568 31.9713 28.0788 34.5884 28.0788C35.101 28.0788 35.6001 28.0114 36.0857 27.8765C36.5984 27.7416 37.0435 27.5392 37.4212 27.2694C37.8259 26.9727 38.1362 26.6219 38.352 26.2172C38.5949 25.8125 38.7163 25.3269 38.7163 24.7603V10.7983H43.8964V31.6806H38.7163V27.9979Z" fill="#FFE684"/>
<path d="M10.4439 32.1663C8.15063 32.1663 6.16762 31.8155 4.49488 31.1141C2.82214 30.3856 1.51362 29.4144 0.569336 28.2003L3.60455 25.4483C4.4679 26.3926 5.45266 27.1211 6.55883 27.6337C7.69197 28.1463 9.00049 28.4026 10.4844 28.4026C11.7794 28.4026 12.8181 28.1868 13.6005 27.7551C14.3829 27.3234 14.7741 26.6624 14.7741 25.7721C14.7741 25.0167 14.5043 24.5041 13.9647 24.2343C13.4521 23.9645 12.7642 23.7621 11.9008 23.6272L8.54183 23.1011C7.67848 22.9662 6.82862 22.7774 5.99225 22.5345C5.18286 22.2647 4.45441 21.9005 3.8069 21.4419C3.18637 20.9832 2.68724 20.4031 2.30953 19.7017C1.93181 18.9732 1.74295 18.0964 1.74295 17.0712C1.74295 14.8858 2.55234 13.2131 4.17112 12.0529C5.81688 10.8928 8.06969 10.3127 10.9295 10.3127C12.953 10.3127 14.6662 10.596 16.0692 11.1626C17.4991 11.7292 18.6727 12.5251 19.59 13.5503L16.8786 16.5451C16.285 15.8975 15.4891 15.331 14.4909 14.8453C13.5196 14.3327 12.2785 14.0764 10.7677 14.0764C8.12365 14.0764 6.80164 14.8993 6.80164 16.5451C6.80164 17.3005 7.07144 17.8266 7.61103 18.1234C8.15063 18.3932 8.8521 18.5955 9.71545 18.7304L13.0339 19.2565C13.9243 19.3914 14.7741 19.5938 15.5835 19.8635C16.4199 20.1064 17.1483 20.4571 17.7689 20.9158C18.4164 21.3744 18.929 21.9545 19.3067 22.6559C19.6844 23.3574 19.8733 24.2208 19.8733 25.246C19.8733 27.4044 19.0369 29.1041 17.3642 30.3452C15.7184 31.5592 13.4117 32.1663 10.4439 32.1663Z" fill="#FFE684"/>
<path d="M42.1955 6.22787C41.8532 6.22787 41.5495 6.17542 41.2845 6.07051C41.0194 5.96561 40.7958 5.81653 40.6136 5.62329C40.4369 5.43004 40.3017 5.19815 40.2078 4.9276C40.1139 4.65154 40.067 4.34234 40.067 4.00002C40.067 3.65218 40.1139 3.34023 40.2078 3.06416C40.3072 2.7881 40.4452 2.55344 40.6219 2.3602C40.7986 2.16695 41.0112 2.01788 41.2596 1.91297C41.5136 1.80807 41.7979 1.75562 42.1127 1.75562C42.4219 1.75562 42.7007 1.80807 42.9491 1.91297C43.1976 2.01236 43.4074 2.15591 43.5786 2.34363C43.7552 2.53136 43.8905 2.75773 43.9844 3.02275C44.0782 3.28778 44.1252 3.5804 44.1252 3.90064V4.24848H41.1271V4.35615C41.1271 4.66534 41.2237 4.91656 41.417 5.10981C41.6102 5.29753 41.8808 5.39139 42.2286 5.39139C42.4936 5.39139 42.72 5.33894 42.9077 5.23403C43.101 5.12361 43.2611 4.98005 43.3881 4.80337L43.9927 5.40796C43.8381 5.63433 43.6117 5.82757 43.3135 5.98769C43.0209 6.14781 42.6482 6.22787 42.1955 6.22787ZM42.1209 2.53412C41.8228 2.53412 41.5826 2.62798 41.4004 2.8157C41.2182 3.00343 41.1271 3.25189 41.1271 3.56108V3.61905H43.0651V3.54452C43.0651 3.23532 42.9795 2.98963 42.8083 2.80742C42.6427 2.62522 42.4136 2.53412 42.1209 2.53412Z" fill="#FFE684"/>
<path d="M37.1136 6.22787C36.6443 6.22787 36.2385 6.15609 35.8962 6.01254C35.5539 5.86346 35.2861 5.6647 35.0928 5.41624L35.714 4.85306C35.8907 5.04631 36.0922 5.19538 36.3186 5.30029C36.5505 5.40519 36.8182 5.45765 37.1219 5.45765C37.3869 5.45765 37.5995 5.41348 37.7596 5.32514C37.9197 5.2368 37.9998 5.10152 37.9998 4.91932C37.9998 4.76472 37.9446 4.65982 37.8342 4.60461C37.7293 4.54939 37.5885 4.50798 37.4118 4.48038L36.7244 4.37271C36.5477 4.3451 36.3738 4.30646 36.2026 4.25676C36.037 4.20155 35.8879 4.12701 35.7554 4.03315C35.6284 3.93929 35.5263 3.82058 35.449 3.67703C35.3717 3.52795 35.333 3.34851 35.333 3.1387C35.333 2.69148 35.4987 2.34916 35.8299 2.11174C36.1667 1.87432 36.6278 1.75562 37.213 1.75562C37.6271 1.75562 37.9777 1.81359 38.2648 1.92954C38.5575 2.04548 38.7976 2.20836 38.9854 2.41817L38.4305 3.03104C38.309 2.89852 38.1461 2.78258 37.9418 2.68319C37.7431 2.57829 37.4891 2.52584 37.1799 2.52584C36.6388 2.52584 36.3683 2.69424 36.3683 3.03104C36.3683 3.18563 36.4235 3.2933 36.5339 3.35403C36.6443 3.40924 36.7879 3.45065 36.9646 3.47826L37.6437 3.58593C37.8259 3.61353 37.9998 3.65494 38.1654 3.71016C38.3366 3.75985 38.4857 3.83162 38.6127 3.92549C38.7452 4.01935 38.8501 4.13806 38.9274 4.28161C39.0047 4.42516 39.0433 4.60185 39.0433 4.81166C39.0433 5.25336 38.8722 5.6012 38.5298 5.85518C38.193 6.10364 37.721 6.22787 37.1136 6.22787Z" fill="#FFE684"/>
<path d="M32.9676 5.37505H32.9262C32.8323 5.60695 32.686 5.80848 32.4872 5.97964C32.294 6.14528 32.0235 6.22809 31.6756 6.22809C31.256 6.22809 30.9137 6.09006 30.6487 5.814C30.3891 5.53241 30.2594 5.13212 30.2594 4.61311V1.85522H31.3195V4.46404C31.3195 5.08242 31.5873 5.39162 32.1228 5.39162C32.2277 5.39162 32.3299 5.37781 32.4293 5.35021C32.5342 5.3226 32.6253 5.28119 32.7026 5.22598C32.7854 5.16524 32.8489 5.09347 32.8931 5.01065C32.9427 4.92783 32.9676 4.82844 32.9676 4.7125V1.85522H34.0277V6.12871H32.9676V5.37505Z" fill="#FFE684"/>
<path d="M27.1983 6.22787C26.8726 6.22787 26.5799 6.17542 26.3204 6.07051C26.0665 5.96561 25.8484 5.81653 25.6662 5.62329C25.4895 5.43004 25.3514 5.19538 25.2521 4.91932C25.1582 4.64325 25.1113 4.33406 25.1113 3.99174C25.1113 3.64942 25.1582 3.34023 25.2521 3.06416C25.3514 2.7881 25.4895 2.55344 25.6662 2.3602C25.8484 2.16695 26.0665 2.01788 26.3204 1.91297C26.5799 1.80807 26.8726 1.75562 27.1983 1.75562C27.5186 1.75562 27.8084 1.80807 28.0679 1.91297C28.3274 2.01788 28.5455 2.16695 28.7222 2.3602C28.9044 2.55344 29.0424 2.7881 29.1363 3.06416C29.2357 3.34023 29.2854 3.64942 29.2854 3.99174C29.2854 4.33406 29.2357 4.64325 29.1363 4.91932C29.0424 5.19538 28.9044 5.43004 28.7222 5.62329C28.5455 5.81653 28.3274 5.96561 28.0679 6.07051C27.8084 6.17542 27.5186 6.22787 27.1983 6.22787ZM27.1983 5.41624C27.502 5.41624 27.7422 5.32514 27.9188 5.14293C28.0955 4.95521 28.1839 4.6819 28.1839 4.32302V3.66046C28.1839 3.30158 28.0955 3.03104 27.9188 2.84883C27.7422 2.66111 27.502 2.56725 27.1983 2.56725C26.8946 2.56725 26.6545 2.66111 26.4778 2.84883C26.3011 3.03104 26.2128 3.30158 26.2128 3.66046V4.32302C26.2128 4.6819 26.3011 4.95521 26.4778 5.14293C26.6545 5.32514 26.8946 5.41624 27.1983 5.41624Z" fill="#FFE684"/>
<path d="M20.0543 6.12849V1.855H20.9321V2.44302H20.9818C21.0481 2.25529 21.142 2.09518 21.2634 1.96266C21.3904 1.82463 21.5671 1.75562 21.7935 1.75562C22.0088 1.75562 22.18 1.81911 22.307 1.9461C22.4339 2.06757 22.5168 2.24149 22.5554 2.46786H22.5968C22.6686 2.27462 22.7735 2.10898 22.9115 1.97095C23.0551 1.82739 23.2566 1.75562 23.5161 1.75562C23.8308 1.75562 24.0572 1.8688 24.1952 2.09518C24.3333 2.32155 24.4023 2.65559 24.4023 3.09729V6.12849H23.5327V3.22152C23.5327 2.97306 23.4968 2.79914 23.425 2.69976C23.3588 2.60037 23.2566 2.55068 23.1186 2.55068C22.9916 2.55068 22.8839 2.59209 22.7956 2.67491C22.7128 2.75773 22.6714 2.88472 22.6714 3.05588V6.12849H21.7935V3.22152C21.7935 2.97306 21.7603 2.79914 21.6941 2.69976C21.6278 2.60037 21.5257 2.55068 21.3877 2.55068C21.2551 2.55068 21.1447 2.59209 21.0564 2.67491C20.9736 2.75773 20.9321 2.88472 20.9321 3.05588V6.12849H20.0543Z" fill="#FFE684"/>
<path d="M17.5563 6.1287C17.1477 6.1287 16.8468 6.02104 16.6536 5.80571C16.4603 5.59038 16.3637 5.31155 16.3637 4.96923V2.69169H15.1214V1.85522H15.9662C16.1373 1.85522 16.2588 1.82209 16.3306 1.75583C16.4023 1.68405 16.4382 1.55983 16.4382 1.38314V0.3479H17.4238V1.85522H19.163V2.69169H17.4238V5.29222H19.163V6.1287H17.5563Z" fill="#FFE684"/>
<path d="M13.8741 6.12848C13.6146 6.12848 13.4131 6.06499 13.2695 5.938C13.1315 5.80549 13.0487 5.62329 13.021 5.39139H12.9796C12.9023 5.65641 12.7505 5.86346 12.5241 6.01254C12.2978 6.15609 12.0189 6.22787 11.6877 6.22787C11.257 6.22787 10.9147 6.11468 10.6607 5.88831C10.4067 5.66194 10.2797 5.34722 10.2797 4.94417C10.2797 4.08284 10.9119 3.65218 12.1763 3.65218H12.9299V3.3706C12.9299 3.10005 12.8637 2.89576 12.7312 2.75773C12.5987 2.6197 12.3833 2.55068 12.0852 2.55068C11.8146 2.55068 11.5966 2.60313 11.4309 2.70804C11.2653 2.81294 11.1245 2.94822 11.0085 3.11385L10.404 2.60037C10.5365 2.36296 10.749 2.16419 11.0417 2.00407C11.3398 1.83843 11.7235 1.75562 12.1929 1.75562C12.756 1.75562 13.195 1.88813 13.5097 2.15315C13.8299 2.41265 13.99 2.8019 13.99 3.3209V5.33342H14.4952V6.12848H13.8741ZM12.0438 5.49906C12.2978 5.49906 12.5076 5.44108 12.6732 5.32514C12.8444 5.20367 12.9299 5.04079 12.9299 4.8365V4.26505H12.2011C11.6214 4.26505 11.3315 4.44725 11.3315 4.81166V4.97729C11.3315 5.14845 11.395 5.2782 11.522 5.36655C11.649 5.45489 11.8229 5.49906 12.0438 5.49906Z" fill="#FFE684"/>
<path d="M5.47113 0H6.53122V2.60881H6.57263C6.66649 2.37692 6.81005 2.17815 7.00329 2.01251C7.20206 1.84135 7.47536 1.75577 7.8232 1.75577C8.24282 1.75577 8.58238 1.89657 8.84188 2.17815C9.10691 2.45422 9.23942 2.85175 9.23942 3.37075V6.12864H8.17933V3.51983C8.17933 2.90144 7.91155 2.59225 7.37598 2.59225C7.26555 2.59225 7.16065 2.60605 7.06127 2.63366C6.96188 2.66127 6.87078 2.70544 6.78796 2.76617C6.71066 2.82138 6.64717 2.8904 6.59748 2.97322C6.55331 3.05604 6.53122 3.15542 6.53122 3.27137V6.12864H5.47113V0Z" fill="#FFE684"/>
<path d="M0 1.85522H0.886169L1.25057 5.38334H1.32511L1.90485 1.85522H2.87384L3.44529 5.38334H3.51983L3.89252 1.85522H4.73728L4.19067 6.12871H2.90696L2.41005 2.98985H2.33551L1.83031 6.12871H0.546609L0 1.85522Z" fill="#FFE684"/>
<path d="M277.814 39.8726C277.438 39.8726 277.112 39.8064 276.836 39.6739C276.56 39.5358 276.331 39.3398 276.149 39.0859C275.972 38.8319 275.84 38.5199 275.751 38.15C275.668 37.7801 275.627 37.3577 275.627 36.8829C275.627 36.4135 275.668 35.9939 275.751 35.624C275.84 35.2485 275.972 34.9338 276.149 34.6799C276.331 34.4259 276.56 34.2326 276.836 34.1001C277.112 33.9621 277.438 33.8931 277.814 33.8931C278.564 33.8931 279.117 34.1553 279.47 34.6799C279.823 35.2044 280 35.9387 280 36.8829C280 37.827 279.823 38.5613 279.47 39.0859C279.117 39.6104 278.564 39.8726 277.814 39.8726ZM277.814 39.003C278.211 39.003 278.49 38.8622 278.65 38.5807C278.816 38.2935 278.898 37.8988 278.898 37.3963V36.3694C278.898 35.8669 278.816 35.4749 278.65 35.1933C278.49 34.9062 278.211 34.7627 277.814 34.7627C277.416 34.7627 277.134 34.9062 276.969 35.1933C276.809 35.4749 276.729 35.8669 276.729 36.3694V37.3963C276.729 37.8988 276.809 38.2935 276.969 38.5807C277.134 38.8622 277.416 39.003 277.814 39.003ZM277.814 37.3715C277.62 37.3715 277.485 37.3328 277.408 37.2555C277.336 37.1782 277.3 37.0844 277.3 36.974V36.7917C277.3 36.6813 277.336 36.5875 277.408 36.5102C277.485 36.4329 277.62 36.3942 277.814 36.3942C278.007 36.3942 278.139 36.4329 278.211 36.5102C278.288 36.5875 278.327 36.6813 278.327 36.7917V36.974C278.327 37.0844 278.288 37.1782 278.211 37.2555C278.139 37.3328 278.007 37.3715 277.814 37.3715Z" fill="#FFE684"/>
<path d="M272.848 39.8642C272.561 39.8642 272.356 39.8035 272.235 39.682C272.113 39.5606 272.053 39.4115 272.053 39.2348V38.9864C272.053 38.8097 272.113 38.6606 272.235 38.5391C272.356 38.4177 272.561 38.3569 272.848 38.3569C273.135 38.3569 273.339 38.4177 273.461 38.5391C273.582 38.6606 273.643 38.8097 273.643 38.9864V39.2348C273.643 39.4115 273.582 39.5606 273.461 39.682C273.339 39.8035 273.135 39.8642 272.848 39.8642Z" fill="#FFE684"/>
<path d="M266.151 39.7732V38.8871H267.741V34.7792H267.666L266.408 36.27L265.728 35.6985L267.161 33.9924H268.826V38.8871H270.134V39.7732H266.151Z" fill="#FFE684"/>
</svg>
